<?xml version="1.0" encoding="UTF-8" standalone="no"?>
<!DOCTYPE svg PUBLIC "-//W3C//DTD SVG 1.1//EN" "http://www.w3.org/Graphics/SVG/1.1/DTD/svg11.dtd">
<svg width="16px" height="16px" viewBox="0 0 400 400" version="1.1" xmlns="http://www.w3.org/2000/svg" xmlns:xlink="http://www.w3.org/1999/xlink" xml:space="preserve" xmlns:serif="http://www.serif.com/" style="fill-rule:evenodd;clip-rule:evenodd;stroke-linecap:round;stroke-linejoin:round;stroke-miterlimit:1.5;">
    <g>
        <g>
            <path d="M70.484,48.809L71.701,49.595L237.14,231.569" style="fill:rgb(128,128,128);fill-opacity:0;stroke:rgb(189,198,150);stroke-width:3.5px;"/>
            <path d="M237.14,231.569L199.64,264.71" style="fill:none;stroke:rgb(189,198,150);stroke-width:3.5px;"/>
            <path d="M199.64,264.71C196.429,266.611 145.866,203.527 120.423,172.791C96.358,143.719 62.657,58.501 70.409,48.844" style="fill:rgb(128,128,128);fill-opacity:0;stroke:rgb(189,198,150);stroke-width:3.5px;"/>
            <path d="M206.518,269.116C219.287,258.735 244.824,237.972 244.824,237.972" style="fill:rgb(128,128,128);fill-opacity:0;stroke:rgb(189,198,150);stroke-width:3.5px;"/>
            <path d="M324.179,326.259L244.824,237.972" style="fill:none;stroke:rgb(189,198,150);stroke-width:3.5px;"/>
            <path d="M301.068,350.695L324.179,326.259" style="fill:none;stroke:rgb(189,198,150);stroke-width:3.5px;"/>
            <path d="M293.337,333.644C287.033,353.237 293.609,356.626 301.068,350.695" style="fill:rgb(128,128,128);fill-opacity:0;stroke:rgb(189,198,150);stroke-width:3.5px;"/>
            <path d="M206.485,269.186C235.616,249.663 252.779,297.116 293.358,333.971" style="fill:rgb(128,128,128);fill-opacity:0;stroke:rgb(189,198,150);stroke-width:3.5px;"/>
        </g>
        <g transform="matrix(1,0,0,1,5.61299,3.73601)">
            <ellipse cx="247.757" cy="263.175" rx="5.335" ry="5.445" style="fill:rgb(128,128,128);fill-opacity:0;stroke:rgb(189,198,150);stroke-width:3.5px;"/>
        </g>
        <g transform="matrix(1,0,0,1,24.5684,25.8959)">
            <ellipse cx="247.757" cy="263.175" rx="5.335" ry="5.445" style="fill:rgb(128,128,128);fill-opacity:0;stroke:rgb(189,198,150);stroke-width:3.5px;"/>
        </g>
        <g transform="matrix(1,0,0,1,43.7061,46.1448)">
            <ellipse cx="247.757" cy="263.175" rx="5.335" ry="5.445" style="fill:rgb(128,128,128);fill-opacity:0;stroke:rgb(189,198,150);stroke-width:3.5px;"/>
        </g>
    </g>
</svg>
